# xmcd CD database file
#
# Track frame offsets:
#	150
#	12713
#	26958
#	45644
#	59005
#	72254
#	90340
#	112170
#	137054
#	154310
#	169544
#	182375
#	197799
#
# Disc length: 2900 seconds
#
# Revision: 0
# Processed by: cddbd v1.5.2PL0 Copyright (c) Steve Scherf et al.
# Submitted via: CDex 1.50
#
DISCID=b80b520d
DTITLE=Siergiej Wowkotrub Trio - Happy Times
DYEAR=2007
DGENRE=Jazz
TTITLE0=Belleville
TTITLE1=Happy Tador
TTITLE2=Solitude
TTITLE3=I've Found Nev Baby
TTITLE4=Minor Swing
TTITLE5=Someday Sweetheart
TTITLE6=Sweet Georgia Brown
TTITLE7=Nuages
TTITLE8=Chicago
TTITLE9=Limehouse Blues
TTITLE10=Flambee Montalbanaise
TTITLE11=In a sentimental Mood
TTITLE12=Swing Gitan
EXTD=YEAR: 2007
EXTT0=
EXTT1=
EXTT2=
EXTT3=
EXTT4=
EXTT5=
EXTT6=
EXTT7=
EXTT8=
EXTT9=
EXTT10=
EXTT11=
EXTT12=
PLAYORDER=
